<?xml version="1.0" encoding="UTF-8" standalone="no"?>
<!-- Created with Inkscape (http://www.inkscape.org/) -->

<svg
   width="241.38699mm"
   height="259.29199mm"
   viewBox="0 0 241.387 259.29199"
   version="1.1"
   id="svg1"
   xml:space="preserve"
   inkscape:version="1.4.3 (0d15f75, 2025-12-25)"
   sodipodi:docname="profile_icon.svg"
   xmlns:inkscape="http://www.inkscape.org/namespaces/inkscape"
   xmlns:sodipodi="http://sodipodi.sourceforge.net/DTD/sodipodi-0.dtd"
   xmlns="http://www.w3.org/2000/svg"
   xmlns:svg="http://www.w3.org/2000/svg"><sodipodi:namedview
     id="namedview1"
     pagecolor="#ffffff"
     bordercolor="#000000"
     borderopacity="0.25"
     inkscape:showpageshadow="2"
     inkscape:pageopacity="0.0"
     inkscape:pagecheckerboard="0"
     inkscape:deskcolor="#d1d1d1"
     inkscape:document-units="mm"
     inkscape:zoom="0.38663019"
     inkscape:cx="839.30331"
     inkscape:cy="1042.3397"
     inkscape:window-width="1920"
     inkscape:window-height="1112"
     inkscape:window-x="-8"
     inkscape:window-y="-8"
     inkscape:window-maximized="1"
     inkscape:current-layer="layer1" /><defs
     id="defs1" /><g
     inkscape:label="Layer 1"
     inkscape:groupmode="layer"
     id="layer1"><path
       style="fill:#000000;stroke-width:1.36287"
       d="m 0.08782372,258.77516 c -0.277236,-0.72246 0.148812,-13.13048 0.624154,-18.1774 C 3.4891157,211.11166 17.673819,182.94349 39.800644,162.97501 50.099881,153.6804 63.587666,145.20339 75.676173,140.4274 l 2.68614,-1.06126 1.68924,1.0394 c 3.17763,1.95521 10.08289,5.02957 14.85393,6.61324 8.741217,2.90152 16.529987,4.15186 25.863147,4.15186 6.4176,0 10.85411,-0.44192 16.7676,-1.67024 7.8092,-1.62209 17.14378,-5.14372 23.48469,-8.86003 l 2.16603,-1.26947 2.68014,1.0627 c 15.37107,6.09472 30.77016,16.60301 42.33481,28.88912 14.56124,15.46967 24.49711,33.46385 29.51303,53.44913 2.4794,9.87879 3.45187,17.79161 3.58676,29.18459 l 0.0853,7.21187 -120.5394,0.0906 C 10.846771,259.34171 0.28892872,259.29941 0.08775472,258.77511 Z M 116.8021,139.03383 C 103.00456,138.07396 90.182383,133.43165 79.542203,125.5438 52.139351,105.22928 43.348159,68.65338 58.573947,38.30498 68.785983,17.950092 87.904363,4.1084371 110.67214,0.58606732 c 5.05019,-0.78132087 15.1298,-0.78144352 20.1931,-2.4532e-4 31.17536,4.8098477 54.95179,29.083933 58.95073,60.184543 4.42594,34.421607 -17.64727,67.193025 -51.19618,76.009395 -6.59048,1.73193 -15.73823,2.67703 -21.81769,2.25407 z"
       id="path2"
       sodipodi:nodetypes="sssscssssscsssscsssssssssss" /></g></svg>
